<svg id="visual" viewBox="0 0 1200 768" width="1200" height="768" xmlns="http://www.w3.org/2000/svg" xmlns:xlink="http://www.w3.org/1999/xlink" version="1.1"><rect x="0" y="0" width="1200" height="768" fill="#ffffff"></rect><defs><linearGradient id="grad1_0" x1="36%" y1="100%" x2="100%" y2="0%"><stop offset="18.75%" stop-color="#fbae3c" stop-opacity="1"></stop><stop offset="81.25%" stop-color="#fbae3c" stop-opacity="1"></stop></linearGradient></defs><defs><linearGradient id="grad1_1" x1="36%" y1="100%" x2="100%" y2="0%"><stop offset="18.75%" stop-color="#fbae3c" stop-opacity="1"></stop><stop offset="81.25%" stop-color="#ffffff" stop-opacity="1"></stop></linearGradient></defs><defs><linearGradient id="grad2_0" x1="0%" y1="100%" x2="64%" y2="0%"><stop offset="18.75%" stop-color="#fbae3c" stop-opacity="1"></stop><stop offset="81.25%" stop-color="#fbae3c" stop-opacity="1"></stop></linearGradient></defs><defs><linearGradient id="grad2_1" x1="0%" y1="100%" x2="64%" y2="0%"><stop offset="18.75%" stop-color="#ffffff" stop-opacity="1"></stop><stop offset="81.25%" stop-color="#fbae3c" stop-opacity="1"></stop></linearGradient></defs><g transform="translate(1200, 768)"><path d="M-605.5 0C-598.1 -78.7 -590.7 -157.3 -559.4 -231.7C-528.1 -306.1 -473 -376.3 -404.5 -404.5C-336 -432.6 -254.1 -418.8 -184.5 -445.3C-114.8 -471.8 -57.4 -538.7 0 -605.5L0 0Z" fill="#ffd69f"></path><path d="M-302.8 0C-299.1 -39.3 -295.3 -78.7 -279.7 -115.9C-264.1 -153.1 -236.5 -188.1 -202.2 -202.2C-168 -216.3 -127 -209.4 -92.2 -222.7C-57.4 -235.9 -28.7 -269.3 0 -302.8L0 0Z" fill="#fbae3c"></path></g><g transform="translate(0, 0)"><path d="M605.5 0C550.1 70.9 494.8 141.8 438.8 181.8C382.9 221.7 326.4 230.6 299.8 299.8C273.3 369 276.7 498.4 231.7 559.4C186.7 620.4 93.4 613 0 605.5L0 0Z" fill="#ffd69f"></path><path d="M302.8 0C275.1 35.5 247.4 70.9 219.4 90.9C191.4 110.9 163.2 115.3 149.9 149.9C136.6 184.5 138.3 249.2 115.9 279.7C93.4 310.2 46.7 306.5 0 302.8L0 0Z" fill="#fbae3c"></path></g></svg>